<svg width="48" height="48" viewBox="0 0 48 48" fill="none" xmlns="http://www.w3.org/2000/svg">
<path d="M0 24C0 10.7452 10.7452 0 24 0C37.2548 0 48 10.7452 48 24C48 37.2548 37.2548 48 24 48C10.7452 48 0 37.2548 0 24Z" fill="#F2F4F7"/>
<path d="M16 33.8174C16.6026 34 17.4165 34 18.8 34H29.2C30.5835 34 31.3974 34 32 33.8174M16 33.8174C15.8708 33.7783 15.7513 33.7308 15.638 33.673C15.0735 33.3854 14.6146 32.9265 14.327 32.362C14 31.7202 14 30.8802 14 29.2V18.8C14 17.1198 14 16.2798 14.327 15.638C14.6146 15.0735 15.0735 14.6146 15.638 14.327C16.2798 14 17.1198 14 18.8 14H29.2C30.8802 14 31.7202 14 32.362 14.327C32.9265 14.6146 33.3854 15.0735 33.673 15.638C34 16.2798 34 17.1198 34 18.8V29.2C34 30.8802 34 31.7202 33.673 32.362C33.3854 32.9265 32.9265 33.3854 32.362 33.673C32.2487 33.7308 32.1292 33.7783 32 33.8174M16 33.8174C16.0004 33.0081 16.0052 32.5799 16.0769 32.2196C16.3925 30.6329 17.6329 29.3925 19.2196 29.0769C19.606 29 20.0707 29 21 29H27C27.9293 29 28.394 29 28.7804 29.0769C30.3671 29.3925 31.6075 30.6329 31.9231 32.2196C31.9948 32.5799 31.9996 33.0081 32 33.8174M28 21.5C28 23.7091 26.2091 25.5 24 25.5C21.7909 25.5 20 23.7091 20 21.5C20 19.2909 21.7909 17.5 24 17.5C26.2091 17.5 28 19.2909 28 21.5Z" stroke="#667085" stroke-width="2" stroke-linecap="round" stroke-linejoin="round"/>
</svg>
