<svg width="65" height="64" viewBox="0 0 65 64" fill="none" xmlns="http://www.w3.org/2000/svg">
<path d="M1 12C1 5.64873 6.14873 0.5 12.5 0.5H52.5C58.8513 0.5 64 5.64873 64 12V52C64 58.3513 58.8513 63.5 52.5 63.5H12.5C6.14873 63.5 1 58.3513 1 52V12Z" fill="white"/>
<path d="M1 12C1 5.64873 6.14873 0.5 12.5 0.5H52.5C58.8513 0.5 64 5.64873 64 12V52C64 58.3513 58.8513 63.5 52.5 63.5H12.5C6.14873 63.5 1 58.3513 1 52V12Z" stroke="#EAECF0"/>
<path d="M35.9855 23.2037H45.9084C46.6953 23.2037 47.0888 23.2037 47.3189 23.3691C47.5196 23.5135 47.6504 23.7356 47.679 23.9812C47.7119 24.2627 47.5208 24.6067 47.1387 25.2946L44.7706 29.5572C44.632 29.8067 44.5627 29.9314 44.5355 30.0635C44.5114 30.1804 44.5114 30.301 44.5355 30.4179C44.5627 30.55 44.632 30.6747 44.7706 30.9242L47.1387 35.1868C47.5208 35.8747 47.7119 36.2187 47.679 36.5002C47.6504 36.7458 47.5196 36.9679 47.3189 37.1123C47.0888 37.2777 46.6953 37.2777 45.9084 37.2777H33.5225C32.5372 37.2777 32.0446 37.2777 31.6683 37.086C31.3372 36.9173 31.0681 36.6482 30.8994 36.3172C30.7077 35.9408 30.7077 35.4482 30.7077 34.4629V30.2407M24.5503 47.8333L17.5133 19.6851M20.1522 30.2407H33.1707C34.1559 30.2407 34.6486 30.2407 35.0249 30.049C35.3559 29.8803 35.6251 29.6112 35.7937 29.2801C35.9855 28.9038 35.9855 28.4112 35.9855 27.4259V18.9814C35.9855 17.9962 35.9855 17.5035 35.7937 17.1272C35.6251 16.7962 35.3559 16.527 35.0249 16.3584C34.6486 16.1666 34.1559 16.1666 33.1707 16.1666H20.2387C19.0099 16.1666 18.3954 16.1666 17.9752 16.4213C17.6068 16.6444 17.3332 16.9949 17.206 17.4064C17.0609 17.8759 17.2099 18.472 17.508 19.6642L20.1522 30.2407Z" stroke="#344054" stroke-width="2" stroke-linecap="round" stroke-linejoin="round"/>
</svg>
