<svg width="16" height="20" viewBox="0 0 16 20" fill="none" xmlns="http://www.w3.org/2000/svg">
<path d="M8.83331 6.24981L6.33331 8.74981L9.66665 10.4165L7.16665 12.9165M14.6666 9.99981C14.6666 14.0902 10.205 17.0651 8.58164 18.0122C8.39715 18.1198 8.3049 18.1737 8.17471 18.2016C8.07368 18.2232 7.92628 18.2232 7.82525 18.2016C7.69506 18.1737 7.60281 18.1198 7.41832 18.0122C5.79495 17.0651 1.33331 14.0902 1.33331 9.99981V6.01448C1.33331 5.34822 1.33331 5.01509 1.44228 4.72873C1.53854 4.47576 1.69497 4.25004 1.89803 4.07109C2.12789 3.86851 2.43981 3.75154 3.06365 3.5176L7.53181 1.84204C7.70506 1.77707 7.79168 1.74459 7.8808 1.73171C7.95984 1.72029 8.04012 1.72029 8.11916 1.73171C8.20827 1.74459 8.2949 1.77707 8.46814 1.84204L12.9363 3.5176C13.5601 3.75154 13.8721 3.86851 14.1019 4.07109C14.305 4.25004 14.4614 4.47576 14.5577 4.72873C14.6666 5.01509 14.6666 5.34822 14.6666 6.01448V9.99981Z" stroke="#667085" stroke-width="2" stroke-linecap="round" stroke-linejoin="round"/>
</svg>
