<svg width="20" height="20" viewBox="0 0 20 20" fill="none" xmlns="http://www.w3.org/2000/svg">
<path d="M13.3334 4.1665L15.8334 1.6665M15.8334 1.6665L18.3334 4.1665M15.8334 1.6665V6.6665M18.3334 9.99984V14.3332C18.3334 15.7333 18.3334 16.4334 18.0609 16.9681C17.8212 17.4386 17.4387 17.821 16.9683 18.0607C16.4336 18.3332 15.7335 18.3332 14.3334 18.3332H5.66669C4.26656 18.3332 3.56649 18.3332 3.03171 18.0607C2.56131 17.821 2.17885 17.4386 1.93917 16.9681C1.66669 16.4334 1.66669 15.7333 1.66669 14.3332V5.6665C1.66669 4.26637 1.66669 3.56631 1.93917 3.03153C2.17885 2.56112 2.56131 2.17867 3.03171 1.93899C3.56649 1.6665 4.26656 1.6665 5.66669 1.6665H10M1.78794 16.6051C2.1789 15.1987 3.46882 14.1665 4.99983 14.1665H10.8332C11.6076 14.1665 11.9948 14.1665 12.3168 14.2306C13.6391 14.4936 14.6728 15.5272 14.9358 16.8495C14.9998 17.1715 14.9998 17.5587 14.9998 18.3332M11.6667 7.9165C11.6667 9.75745 10.1743 11.2498 8.33335 11.2498C6.4924 11.2498 5.00002 9.75745 5.00002 7.9165C5.00002 6.07555 6.4924 4.58317 8.33335 4.58317C10.1743 4.58317 11.6667 6.07555 11.6667 7.9165Z" stroke="#667085" stroke-width="2" stroke-linecap="round" stroke-linejoin="round"/>
</svg>
