<svg width="183" height="52" viewBox="0 0 183 52" fill="none" xmlns="http://www.w3.org/2000/svg">
<g clip-path="url(#clip0_1_16226)">
<path d="M3.63333 3.83321C1.66666 4.89987 1.66666 4.76654 1.66666 25.9999C1.66666 47.2665 1.63333 46.8999 3.63333 48.0999C4.49999 48.5999 5.86666 48.6665 16.3333 48.6665H28.0333L27.2667 47.6999C26.8333 47.1999 25.5667 45.6999 24.4333 44.3665C22.4667 42.1332 22.3333 41.8665 22.3333 40.3332C22.3333 38.8999 22.5 38.4999 23.5667 37.3332L24.7667 35.9665L23.6 34.7332C21.7667 32.8332 20.9333 30.8665 20.9 28.4999C20.9 23.8665 24.4333 20.3332 29.1 20.3332C31.3667 20.3332 32.9333 20.9332 34.9 22.5332L36.3667 23.7332L37.6667 22.5332C39 21.3332 40.7667 20.7665 42 21.1665C42.4 21.2999 44.4333 22.7999 46.5333 24.5332L50.3333 27.6665V17.1332C50.3333 5.56654 50.2667 5.03321 48.3667 3.89987C47.4667 3.36654 45.5667 3.33321 25.9333 3.33321C8.03333 3.36654 4.36666 3.4332 3.63333 3.83321Z" fill="#D02F28"/>
<path d="M28.0999 24.5665C27.0333 24.7665 25.4333 26.4665 25.1666 27.6665C24.8666 29.0332 25.4666 30.6999 26.6999 31.8332L27.6999 32.7999L30.5666 29.9332L33.4666 27.0332L32.4999 26.1332C31.5666 25.2665 29.6333 24.2665 29.0999 24.3665C28.9666 24.3999 28.4999 24.4999 28.0999 24.5665Z" fill="#D02F28"/>
<circle cx="31.6875" cy="10.5624" r="2.4375" fill="#BC2620"/>
<circle cx="13.8125" cy="17.0624" r="7.3125" fill="#BC2620"/>
<circle cx="8.9375" cy="38.1874" r="4.0625" fill="#BC2620"/>
</g>
<path d="M172.078 47.7859V34.4968H173.799V38.1165L173.622 37.4837C173.993 36.4712 174.618 35.7034 175.495 35.1803C176.373 34.6403 177.461 34.3703 178.761 34.3703V36.1168C178.693 36.1168 178.626 36.1168 178.558 36.1168C178.491 36.1 178.423 36.0915 178.356 36.0915C176.955 36.0915 175.858 36.5218 175.065 37.3825C174.272 38.2262 173.875 39.4328 173.875 41.0022V47.7859H172.078Z" fill="black"/>
<path d="M162.446 47.9122C161.062 47.9122 159.847 47.6253 158.801 47.0516C157.755 46.4609 156.937 45.6594 156.346 44.6469C155.755 43.6175 155.46 42.4447 155.46 41.1284C155.46 39.8122 155.738 38.6478 156.295 37.6353C156.869 36.6228 157.645 35.8297 158.624 35.2559C159.62 34.6653 160.733 34.37 161.965 34.37C163.214 34.37 164.319 34.6569 165.281 35.2306C166.26 35.7875 167.028 36.5806 167.585 37.61C168.142 38.6225 168.42 39.7953 168.42 41.1284C168.42 41.2128 168.412 41.3056 168.395 41.4069C168.395 41.4912 168.395 41.5841 168.395 41.6853H156.827V40.3437H167.433L166.724 40.8753C166.724 39.9134 166.513 39.0612 166.091 38.3187C165.686 37.5594 165.129 36.9687 164.421 36.5469C163.712 36.125 162.893 35.9141 161.965 35.9141C161.054 35.9141 160.236 36.125 159.51 36.5469C158.784 36.9687 158.219 37.5594 157.814 38.3187C157.409 39.0781 157.207 39.9472 157.207 40.9259V41.2044C157.207 42.2169 157.426 43.1112 157.865 43.8875C158.32 44.6469 158.945 45.2459 159.738 45.6847C160.548 46.1066 161.467 46.3175 162.497 46.3175C163.307 46.3175 164.058 46.1741 164.75 45.8872C165.458 45.6003 166.066 45.1616 166.572 44.5709L167.585 45.7353C166.994 46.4441 166.252 46.9841 165.357 47.3553C164.48 47.7266 163.509 47.9122 162.446 47.9122Z" fill="black"/>
<path d="M151.19 47.9124C149.941 47.9124 148.979 47.5749 148.304 46.8999C147.629 46.2249 147.292 45.2715 147.292 44.0396V31.5605H149.089V43.9383C149.089 44.7146 149.283 45.3137 149.671 45.7355C150.076 46.1574 150.65 46.3683 151.392 46.3683C152.186 46.3683 152.844 46.1405 153.367 45.6849L154 46.9758C153.645 47.2965 153.215 47.5327 152.709 47.6846C152.219 47.8365 151.713 47.9124 151.19 47.9124ZM144.912 35.9902V34.4968H153.139V35.9902H144.912Z" fill="black"/>
<path d="M137.356 47.9125C135.973 47.9125 134.758 47.6256 133.711 47.0518C132.665 46.4612 131.847 45.6597 131.256 44.6472C130.665 43.6178 130.37 42.445 130.37 41.1287C130.37 39.8125 130.649 38.6481 131.205 37.6356C131.779 36.6231 132.555 35.83 133.534 35.2562C134.53 34.6656 135.644 34.3703 136.875 34.3703C138.124 34.3703 139.229 34.6572 140.191 35.2309C141.17 35.7878 141.938 36.5809 142.495 37.6103C143.052 38.6228 143.33 39.7956 143.33 41.1287C143.33 41.2131 143.322 41.3059 143.305 41.4072C143.305 41.4915 143.305 41.5843 143.305 41.6856H131.737V40.344H142.343L141.634 40.8756C141.634 39.9137 141.423 39.0615 141.001 38.319C140.596 37.5597 140.039 36.969 139.331 36.5472C138.622 36.1253 137.804 35.9143 136.875 35.9143C135.964 35.9143 135.146 36.1253 134.42 36.5472C133.694 36.969 133.129 37.5597 132.724 38.319C132.319 39.0784 132.117 39.9475 132.117 40.9262V41.2047C132.117 42.2172 132.336 43.1115 132.775 43.8878C133.23 44.6472 133.855 45.2462 134.648 45.685C135.458 46.1068 136.378 46.3178 137.407 46.3178C138.217 46.3178 138.968 46.1743 139.66 45.8875C140.369 45.6006 140.976 45.1618 141.482 44.5712L142.495 45.7356C141.904 46.4443 141.162 46.9844 140.267 47.3556C139.39 47.7269 138.419 47.9125 137.356 47.9125Z" fill="black"/>
<path d="M118.471 44.3433L118.521 42.0399L126.798 34.4968H129.001L123.153 40.0908L122.141 40.9514L118.471 44.3433ZM117.053 47.7858V29.0039H118.85V47.7858H117.053ZM127.355 47.7858L121.812 40.8755L122.976 39.4833L129.557 47.7858H127.355Z" fill="black"/>
<path d="M107.091 47.7859V34.4968H108.813V38.1165L108.635 37.4837C109.007 36.4712 109.631 35.7034 110.508 35.1803C111.386 34.6403 112.474 34.3703 113.774 34.3703V36.1168C113.706 36.1168 113.639 36.1168 113.571 36.1168C113.504 36.1 113.436 36.0915 113.369 36.0915C111.968 36.0915 110.871 36.5218 110.078 37.3825C109.285 38.2262 108.888 39.4328 108.888 41.0022V47.7859H107.091Z" fill="black"/>
<path d="M100.489 47.7859V44.8497L100.413 44.3687V39.4581C100.413 38.3275 100.093 37.4584 99.4514 36.8509C98.827 36.2434 97.8904 35.9397 96.6417 35.9397C95.781 35.9397 94.9626 36.0831 94.1864 36.37C93.4101 36.6568 92.752 37.0365 92.212 37.509L91.402 36.1675C92.077 35.5937 92.887 35.155 93.832 34.8512C94.777 34.5306 95.7726 34.3703 96.8189 34.3703C98.5401 34.3703 99.8648 34.8006 100.793 35.6612C101.738 36.505 102.21 37.7959 102.21 39.534V47.7859H100.489ZM95.9076 47.9125C94.912 47.9125 94.0429 47.7522 93.3004 47.4315C92.5748 47.094 92.0179 46.6384 91.6298 46.0647C91.2417 45.474 91.0476 44.799 91.0476 44.0397C91.0476 43.3478 91.2079 42.7234 91.5285 42.1665C91.866 41.5928 92.406 41.1372 93.1485 40.7997C93.9079 40.4453 94.9204 40.2681 96.186 40.2681H100.768V41.6097H96.2367C94.9542 41.6097 94.0598 41.8375 93.5535 42.2931C93.0642 42.7487 92.8195 43.314 92.8195 43.989C92.8195 44.7484 93.1148 45.3559 93.7054 45.8115C94.296 46.2672 95.1229 46.495 96.186 46.495C97.1985 46.495 98.0676 46.2672 98.7932 45.8115C99.5357 45.339 100.076 44.664 100.413 43.7865L100.818 45.0268C100.481 45.9043 99.8901 46.6047 99.0464 47.1278C98.2195 47.6509 97.1732 47.9125 95.9076 47.9125Z" fill="black"/>
<path d="M68.3652 47.7858V30.0671H69.9093L78.0093 43.8877H77.1993L85.2234 30.0671H86.7674V47.7858H84.9702V32.8768H85.4005L78.0093 45.533H77.1234L69.6815 32.8768H70.1624V47.7858H68.3652Z" fill="black"/>
<path d="M177.53 6.44208H182.542V24.1608H177.53V6.44208ZM170.696 24.1608H165.684V6.44208H170.696V24.1608ZM177.885 17.2505H170.342V13.0993H177.885V17.2505Z" fill="black"/>
<path d="M155.522 24.5153C154.07 24.5153 152.67 24.3381 151.32 23.9837C149.987 23.6125 148.898 23.14 148.054 22.5662L149.7 18.8706C150.493 19.3768 151.404 19.7987 152.433 20.1362C153.48 20.4568 154.517 20.6171 155.547 20.6171C156.239 20.6171 156.796 20.5581 157.217 20.44C157.639 20.305 157.943 20.1362 158.129 19.9337C158.331 19.7143 158.432 19.4612 158.432 19.1743C158.432 18.7693 158.247 18.4487 157.876 18.2125C157.504 17.9762 157.023 17.7821 156.433 17.6303C155.842 17.4784 155.184 17.3265 154.458 17.1746C153.75 17.0228 153.032 16.8287 152.307 16.5925C151.598 16.3562 150.948 16.0525 150.358 15.6812C149.767 15.2931 149.286 14.7953 148.915 14.1878C148.544 13.5634 148.358 12.7787 148.358 11.8337C148.358 10.7706 148.645 9.80871 149.219 8.94808C149.809 8.08746 150.687 7.39558 151.851 6.87246C153.016 6.34933 154.467 6.08777 156.205 6.08777C157.369 6.08777 158.508 6.22277 159.622 6.49277C160.753 6.74589 161.757 7.12558 162.634 7.63183L161.09 11.3528C160.247 10.8971 159.411 10.5596 158.584 10.3403C157.757 10.104 156.956 9.98589 156.18 9.98589C155.488 9.98589 154.931 10.0618 154.509 10.2137C154.087 10.3487 153.783 10.5343 153.598 10.7706C153.412 11.0068 153.319 11.2768 153.319 11.5806C153.319 11.9687 153.497 12.2809 153.851 12.5171C154.222 12.7365 154.703 12.9221 155.294 13.074C155.901 13.209 156.559 13.3525 157.268 13.5043C157.994 13.6562 158.711 13.8503 159.42 14.0865C160.145 14.3059 160.803 14.6096 161.394 14.9978C161.985 15.369 162.457 15.8668 162.812 16.4912C163.183 17.0987 163.368 17.8665 163.368 18.7946C163.368 19.824 163.073 20.7775 162.482 21.655C161.909 22.5156 161.04 23.2075 159.875 23.7306C158.728 24.2537 157.277 24.5153 155.522 24.5153Z" fill="black"/>
<path d="M140.718 24.1608V6.44208H145.73V24.1608H140.718Z" fill="black"/>
<path d="M126.164 20.2375L125.885 14.6181L133.505 6.44214H139.023L131.429 14.6687L128.645 17.5796L126.164 20.2375ZM121.684 24.1609V6.44214H126.645V24.1609H121.684ZM133.58 24.1609L127.809 16.8456L131.075 13.3525L139.402 24.1609H133.58Z" fill="black"/>
<path d="M102.947 24.1608V6.44208H111.047C112.667 6.44208 114.059 6.70364 115.223 7.22677C116.404 7.74989 117.316 8.50927 117.957 9.50489C118.598 10.4836 118.919 11.648 118.919 12.998C118.919 14.3311 118.598 15.4871 117.957 16.4658C117.316 17.4277 116.404 18.1702 115.223 18.6933C114.059 19.1996 112.667 19.4527 111.047 19.4527H105.731L107.959 17.3518V24.1608H102.947ZM113.907 24.1608L109.503 17.7061H114.844L119.273 24.1608H113.907ZM107.959 17.8833L105.731 15.5799H110.743C111.789 15.5799 112.565 15.3521 113.072 14.8965C113.595 14.4408 113.856 13.808 113.856 12.998C113.856 12.1711 113.595 11.5299 113.072 11.0743C112.565 10.6186 111.789 10.3908 110.743 10.3908H105.731L107.959 8.08739V17.8833Z" fill="black"/>
<path d="M91.2231 24.5152C88.6075 24.5152 86.5656 23.798 85.0975 22.3636C83.6293 20.9293 82.8953 18.8958 82.8953 16.2633V6.44208H87.9071V16.1115C87.9071 17.6302 88.2025 18.7186 88.7931 19.3768C89.4006 20.0349 90.2275 20.364 91.2737 20.364C92.32 20.364 93.1384 20.0349 93.729 19.3768C94.3196 18.7186 94.615 17.6302 94.615 16.1115V6.44208H99.5509V16.2633C99.5509 18.8958 98.8168 20.9293 97.3487 22.3636C95.8806 23.798 93.8387 24.5152 91.2231 24.5152Z" fill="black"/>
<path d="M71.0232 24.1608V10.4161H65.5811V6.44208H81.452V10.4161H76.0351V24.1608H71.0232Z" fill="black"/>
<defs>
<clipPath id="clip0_1_16226">
<path d="M0 12.7999C0 8.31946 0 6.07925 0.871948 4.36795C1.63893 2.86266 2.86278 1.63881 4.36808 0.871826C6.07937 -0.00012207 8.31958 -0.00012207 12.8 -0.00012207H39.2C43.6804 -0.00012207 45.9206 -0.00012207 47.6319 0.871826C49.1372 1.63881 50.3611 2.86266 51.1281 4.36795C52 6.07925 52 8.31946 52 12.7999V39.1999C52 43.6803 52 45.9205 51.1281 47.6318C50.3611 49.1371 49.1372 50.3609 47.6319 51.1279C45.9206 51.9999 43.6804 51.9999 39.2 51.9999H12.8C8.31958 51.9999 6.07937 51.9999 4.36808 51.1279C2.86278 50.3609 1.63893 49.1371 0.871948 47.6318C0 45.9205 0 43.6803 0 39.1999V12.7999Z" fill="white"/>
</clipPath>
</defs>
</svg>
