<svg width="20" height="20" viewBox="0 0 20 20" fill="none" xmlns="http://www.w3.org/2000/svg">
<path d="M6.66669 6.6665V4.33317C6.66669 3.39975 6.66669 2.93304 6.84834 2.57652C7.00813 2.26292 7.2631 2.00795 7.5767 1.84816C7.93322 1.6665 8.39993 1.6665 9.33335 1.6665H15.6667C16.6001 1.6665 17.0668 1.6665 17.4233 1.84816C17.7369 2.00795 17.9919 2.26292 18.1517 2.57652C18.3334 2.93304 18.3334 3.39975 18.3334 4.33317V10.6665C18.3334 11.5999 18.3334 12.0666 18.1517 12.4232C17.9919 12.7368 17.7369 12.9917 17.4233 13.1515C17.0668 13.3332 16.6001 13.3332 15.6667 13.3332H13.3334M4.33335 18.3332H10.6667C11.6001 18.3332 12.0668 18.3332 12.4233 18.1515C12.7369 17.9917 12.9919 17.7368 13.1517 17.4232C13.3334 17.0666 13.3334 16.5999 13.3334 15.6665V9.33317C13.3334 8.39975 13.3334 7.93304 13.1517 7.57652C12.9919 7.26292 12.7369 7.00795 12.4233 6.84816C12.0668 6.6665 11.6001 6.6665 10.6667 6.6665H4.33335C3.39993 6.6665 2.93322 6.6665 2.5767 6.84816C2.2631 7.00795 2.00813 7.26292 1.84834 7.57652C1.66669 7.93304 1.66669 8.39975 1.66669 9.33317V15.6665C1.66669 16.5999 1.66669 17.0666 1.84834 17.4232C2.00813 17.7368 2.2631 17.9917 2.5767 18.1515C2.93322 18.3332 3.39993 18.3332 4.33335 18.3332Z" stroke="#667085" stroke-width="2" stroke-linecap="round" stroke-linejoin="round"/>
</svg>
