<svg width="20" height="12" viewBox="0 0 20 12" fill="none" xmlns="http://www.w3.org/2000/svg">
<path d="M10 6.00016H10.0042M14.1667 6.00016H14.1709M5.83335 6.00016H5.83752M4.33335 1.8335H15.6667C16.6001 1.8335 17.0668 1.8335 17.4233 2.01515C17.7369 2.17494 17.9919 2.42991 18.1517 2.74351C18.3334 3.10003 18.3334 3.56674 18.3334 4.50016V7.50016C18.3334 8.43358 18.3334 8.90029 18.1517 9.25681C17.9919 9.57042 17.7369 9.82538 17.4233 9.98517C17.0668 10.1668 16.6001 10.1668 15.6667 10.1668H4.33335C3.39993 10.1668 2.93322 10.1668 2.5767 9.98517C2.2631 9.82538 2.00813 9.57042 1.84834 9.25681C1.66669 8.90029 1.66669 8.43358 1.66669 7.50016V4.50016C1.66669 3.56674 1.66669 3.10003 1.84834 2.74351C2.00813 2.42991 2.2631 2.17494 2.5767 2.01515C2.93322 1.8335 3.39993 1.8335 4.33335 1.8335ZM10.2084 6.00016C10.2084 6.11522 10.1151 6.2085 10 6.2085C9.88496 6.2085 9.79169 6.11522 9.79169 6.00016C9.79169 5.8851 9.88496 5.79183 10 5.79183C10.1151 5.79183 10.2084 5.8851 10.2084 6.00016ZM14.375 6.00016C14.375 6.11522 14.2817 6.2085 14.1667 6.2085C14.0516 6.2085 13.9584 6.11522 13.9584 6.00016C13.9584 5.8851 14.0516 5.79183 14.1667 5.79183C14.2817 5.79183 14.375 5.8851 14.375 6.00016ZM6.04169 6.00016C6.04169 6.11522 5.94841 6.2085 5.83335 6.2085C5.71829 6.2085 5.62502 6.11522 5.62502 6.00016C5.62502 5.8851 5.71829 5.79183 5.83335 5.79183C5.94841 5.79183 6.04169 5.8851 6.04169 6.00016Z" stroke="#667085" stroke-width="2" stroke-linecap="round" stroke-linejoin="round"/>
</svg>
