<svg width="19" height="19" viewBox="0 0 19 19" fill="none" xmlns="http://www.w3.org/2000/svg">
<path d="M13.7497 1.5L10.833 4.41667M10.833 4.41667L13.7497 7.33333M10.833 4.41667H17.4997M8.52222 10.5526C7.52091 9.55124 6.73025 8.41904 6.15025 7.21102C6.10036 7.10712 6.07542 7.05516 6.05625 6.98942C5.98815 6.75579 6.03707 6.46891 6.17874 6.27105C6.21861 6.21537 6.26624 6.16774 6.3615 6.07248C6.65284 5.78115 6.79851 5.63548 6.89375 5.48899C7.25291 4.93659 7.25291 4.22443 6.89375 3.67203C6.79851 3.52554 6.65284 3.37988 6.3615 3.08854L6.19911 2.92615C5.75624 2.48328 5.53481 2.26184 5.29699 2.14156C4.82402 1.90233 4.26547 1.90233 3.7925 2.14156C3.55468 2.26184 3.33325 2.48328 2.89038 2.92615L2.75902 3.05751C2.31767 3.49886 2.09699 3.71954 1.92845 4.01956C1.74143 4.35249 1.60696 4.86956 1.6081 5.25141C1.60912 5.59554 1.67588 5.83072 1.80938 6.30109C2.52686 8.82892 3.88059 11.2142 5.87057 13.2042C7.86055 15.1942 10.2459 16.5479 12.7737 17.2654C13.2441 17.3989 13.4792 17.4657 13.8234 17.4667C14.2052 17.4678 14.7223 17.3333 15.0552 17.1463C15.3552 16.9778 15.5759 16.7571 16.0173 16.3158L16.1486 16.1844C16.5915 15.7415 16.8129 15.5201 16.9332 15.2823C17.1724 14.8093 17.1724 14.2508 16.9332 13.7778C16.8129 13.54 16.5915 13.3185 16.1486 12.8757L15.9862 12.7133C15.6949 12.4219 15.5492 12.2763 15.4028 12.181C14.8503 11.8219 14.1382 11.8219 13.5858 12.181C13.4393 12.2763 13.2936 12.4219 13.0023 12.7133C12.907 12.8085 12.8594 12.8562 12.8037 12.896C12.6059 13.0377 12.319 13.0866 12.0854 13.0185C12.0196 12.9994 11.9677 12.9744 11.8638 12.9245C10.6557 12.3445 9.52354 11.5539 8.52222 10.5526Z" stroke="#667085" stroke-width="2" stroke-linecap="round" stroke-linejoin="round"/>
</svg>
