<svg width="12" height="12" viewBox="0 0 12 12" fill="none" xmlns="http://www.w3.org/2000/svg">
<g clip-path="url(#clip0_2621_3151)">
<path d="M4.69752 9.68556L4.98974 10.3428C5.07661 10.5384 5.21838 10.7046 5.39786 10.8213C5.57733 10.938 5.7868 11 6.00085 11C6.21491 11 6.42438 10.938 6.60385 10.8213C6.78333 10.7046 6.9251 10.5384 7.01197 10.3428L7.30419 9.68556C7.40821 9.45235 7.58319 9.25793 7.80419 9.13C8.02658 9.00172 8.28385 8.94707 8.53919 8.97389L9.25419 9.05C9.46702 9.07251 9.68182 9.0328 9.87253 8.93567C10.0632 8.83853 10.2217 8.68816 10.3286 8.50278C10.4357 8.31751 10.4867 8.10514 10.4755 7.89144C10.4643 7.67774 10.3912 7.4719 10.2653 7.29889L9.84197 6.71722C9.69123 6.50857 9.61068 6.25741 9.61197 6C9.61192 5.74329 9.69322 5.49318 9.84419 5.28556L10.2675 4.70389C10.3935 4.53088 10.4665 4.32503 10.4777 4.11134C10.489 3.89764 10.4379 3.68527 10.3309 3.5C10.2239 3.31462 10.0655 3.16424 9.87475 3.06711C9.68404 2.96998 9.46925 2.93027 9.25641 2.95278L8.54141 3.02889C8.28608 3.0557 8.0288 3.00106 7.80641 2.87278C7.58497 2.74413 7.40995 2.54868 7.30641 2.31444L7.01197 1.65722C6.9251 1.46159 6.78333 1.29536 6.60385 1.1787C6.42438 1.06204 6.21491 0.999965 6.00085 1C5.7868 0.999965 5.57733 1.06204 5.39786 1.1787C5.21838 1.29536 5.07661 1.46159 4.98974 1.65722L4.69752 2.31444C4.59399 2.54868 4.41896 2.74413 4.19752 2.87278C3.97513 3.00106 3.71786 3.0557 3.46252 3.02889L2.7453 2.95278C2.53246 2.93027 2.31767 2.96998 2.12696 3.06711C1.93624 3.16424 1.77781 3.31462 1.67085 3.5C1.56376 3.68527 1.51275 3.89764 1.52399 4.11134C1.53523 4.32503 1.60825 4.53088 1.73419 4.70389L2.15752 5.28556C2.30849 5.49318 2.38979 5.74329 2.38974 6C2.38979 6.25671 2.30849 6.50683 2.15752 6.71444L1.73419 7.29611C1.60825 7.46912 1.53523 7.67497 1.52399 7.88866C1.51275 8.10236 1.56376 8.31473 1.67085 8.5C1.77791 8.68529 1.93637 8.83558 2.12705 8.9327C2.31774 9.02981 2.53248 9.06959 2.7453 9.04722L3.4603 8.97111C3.71563 8.9443 3.97291 8.99894 4.1953 9.12722C4.41756 9.25551 4.5934 9.451 4.69752 9.68556Z" stroke="#667085" stroke-width="1.5" stroke-linecap="round" stroke-linejoin="round"/>
<path d="M5.99996 7.5C6.82839 7.5 7.49996 6.82843 7.49996 6C7.49996 5.17157 6.82839 4.5 5.99996 4.5C5.17153 4.5 4.49996 5.17157 4.49996 6C4.49996 6.82843 5.17153 7.5 5.99996 7.5Z" stroke="#667085" stroke-width="1.5" stroke-linecap="round" stroke-linejoin="round"/>
</g>
<defs>
<clipPath id="clip0_2621_3151">
<rect width="12" height="12" fill="white"/>
</clipPath>
</defs>
</svg>
