<svg width="12" height="12" viewBox="0 0 12 12" fill="none" xmlns="http://www.w3.org/2000/svg">
<path d="M2.50007 7H9.06793C9.57434 7 9.82755 7 10.0291 6.90558C10.2067 6.82241 10.3559 6.68887 10.4582 6.52158C10.5743 6.33166 10.6022 6.08 10.6581 5.57669L10.9506 2.94417C10.9677 2.79044 10.9763 2.71358 10.9516 2.65408C10.9298 2.60183 10.891 2.55849 10.8415 2.53114C10.7851 2.5 10.7078 2.5 10.5531 2.5H2.25007M1 1H1.62422C1.75653 1 1.82269 1 1.87444 1.02516C1.92001 1.04731 1.95777 1.08279 1.98272 1.12688C2.01106 1.17697 2.01519 1.243 2.02344 1.37505L2.47656 8.62495C2.48481 8.75701 2.48894 8.82303 2.51728 8.87312C2.54223 8.91721 2.57999 8.95269 2.62556 8.97484C2.67731 9 2.74347 9 2.87578 9H9.5M3.75 10.75H3.755M8.25 10.75H8.255M4 10.75C4 10.8881 3.88807 11 3.75 11C3.61193 11 3.5 10.8881 3.5 10.75C3.5 10.6119 3.61193 10.5 3.75 10.5C3.88807 10.5 4 10.6119 4 10.75ZM8.5 10.75C8.5 10.8881 8.38807 11 8.25 11C8.11193 11 8 10.8881 8 10.75C8 10.6119 8.11193 10.5 8.25 10.5C8.38807 10.5 8.5 10.6119 8.5 10.75Z" stroke="#EE46BC" stroke-width="1.5" stroke-linecap="round" stroke-linejoin="round"/>
</svg>
