<svg width="20" height="20" viewBox="0 0 20 20" fill="none" xmlns="http://www.w3.org/2000/svg">
<path d="M6.66669 6.6665H6.67502M3.80231 2.44755L2.44774 3.80212C2.15948 4.09037 2.01536 4.2345 1.91229 4.4027C1.82091 4.55182 1.75357 4.71439 1.71274 4.88445C1.66669 5.07626 1.66669 5.28009 1.66669 5.68774L1.66669 8.06193C1.66669 8.46958 1.66669 8.67341 1.71274 8.86522C1.75356 9.03528 1.82091 9.19786 1.91229 9.34698C2.01536 9.51517 2.15948 9.6593 2.44773 9.94755L8.83826 16.3381C9.8283 17.3281 10.3233 17.8231 10.8941 18.0086C11.3962 18.1718 11.9371 18.1718 12.4392 18.0086C13.01 17.8231 13.5051 17.3281 14.4951 16.3381L16.3383 14.4949C17.3283 13.5049 17.8233 13.0099 18.0088 12.439C18.1719 11.9369 18.1719 11.3961 18.0088 10.894C17.8233 10.3231 17.3283 9.82812 16.3383 8.83807L9.94773 2.44755C9.65948 2.1593 9.51535 2.01517 9.34716 1.9121C9.19804 1.82072 9.03547 1.75338 8.86541 1.71255C8.67359 1.6665 8.46977 1.6665 8.06212 1.6665L5.68792 1.6665C5.28027 1.6665 5.07645 1.6665 4.88463 1.71255C4.71457 1.75338 4.552 1.82072 4.40288 1.9121C4.23468 2.01517 4.09056 2.1593 3.80231 2.44755ZM7.08335 6.6665C7.08335 6.89662 6.89681 7.08317 6.66669 7.08317C6.43657 7.08317 6.25002 6.89662 6.25002 6.6665C6.25002 6.43639 6.43657 6.24984 6.66669 6.24984C6.89681 6.24984 7.08335 6.43639 7.08335 6.6665Z" stroke="#667085" stroke-width="2" stroke-linecap="round" stroke-linejoin="round"/>
</svg>
