<svg width="18" height="16" viewBox="0 0 18 16" fill="none" xmlns="http://www.w3.org/2000/svg">
<path d="M16.5 5.7085H11.5M16.5 1.3335H1.5M16.5 10.2918H11.5M16.5 14.6668H1.5M2.83333 11.3335H6.83333C7.30004 11.3335 7.5334 11.3335 7.71166 11.2427C7.86846 11.1628 7.99594 11.0353 8.07584 10.8785C8.16667 10.7002 8.16667 10.4669 8.16667 10.0002V6.00016C8.16667 5.53345 8.16667 5.3001 8.07584 5.12184C7.99594 4.96504 7.86846 4.83755 7.71166 4.75766C7.5334 4.66683 7.30004 4.66683 6.83333 4.66683H2.83333C2.36662 4.66683 2.13327 4.66683 1.95501 4.75766C1.79821 4.83755 1.67072 4.96504 1.59083 5.12184C1.5 5.3001 1.5 5.53345 1.5 6.00016V10.0002C1.5 10.4669 1.5 10.7002 1.59083 10.8785C1.67072 11.0353 1.79821 11.1628 1.95501 11.2427C2.13327 11.3335 2.36662 11.3335 2.83333 11.3335Z" stroke="#667085" stroke-width="2" stroke-linecap="round" stroke-linejoin="round"/>
</svg>
